Madagascar.Escape.2.Africa.2008[Eng-Ro]H264_MarGelaTu
-----------------------------------------------------

Source: Madagascar.Escape.2.Africa.2008.NTSC.DVDR.Romanian
-----------------------------------------------------------                                                                 (mersi zuzuzuzuzu)
      Format : MPEG-4
      Format profile : Base Media / Version 2
      Codec ID : mp42
      File size : 847 MiB
      Duration : 1h 29mn
      Overall bit rate : 1 325 Kbps
      Encoded date : UTC 2010-02-27 06:08:24
      Tagged date : UTC 2010-02-27 06:27:02
       Video #1
      ID : 1
      Format : AVC
      Format/Info : Advanced Video Codec
      Format profile : Main@L3.0
      Format settings, CABAC : Yes
      Format settings, ReFrames : 3 frames
      Codec ID : avc1
      Codec ID/Info : Advanced Video Coding
      Duration : 1h 29mn
      Bit rate mode : Variable
      Bit rate : 1 000 Kbps
      Width : 720 pixels
      Height : 400 pixels
      Display aspect ratio : 16:9
      Frame rate mode : Constant
      Frame rate : 25.000 fps
      Resolution : 24 bits
      Colorimetry : 4:2:0
      Scan type : Progressive
      Bits/(Pixel*Frame) : 0.139
      Stream size : 639 MiB (75%)
      Writing library : x264 core 79
      Encoding settings : cabac=1 / ref=3 / deblock=1:0:0 / analyse=0x1:0x111 / me=hex / subme=6 / psy=1 / psy_rd=0.0:0.0 / mixed_ref=0 / me_range=16 / chroma_me=1 / trellis=1 / 8x8dct=0 / cqm=0 / deadzone=21,11 / chroma_qp_offset=0 / threads=6 / nr=0 / decimate=1 / mbaff=0 / constrained_intra=0 / bframes=3 / b_pyramid=0 / b_adapt=1 / b_bias=0 / direct=1 / wpredb=0 / wpredp=2 / keyint=250 / keyint_min=25 / scenecut=40 / rc_lookahead=40 / rc=2pass / mbtree=1 / bitrate=1000 / ratetol=1.0 / qcomp=0.60 / qpmin=10 / qpmax=51 / qpstep=4 / cplxblur=20.0 / qblur=0.5 / ip_ratio=1.40 / aq=1:1.00
      Encoded date : UTC 2010-02-27 06:08:24
      Tagged date : UTC 2010-02-27 06:27:02
      colour_primaries : BT.601-6 525, BT.1358 525, BT.1700 NTSC, SMPTE 170M
      transfer_characteristics : BT.709-5, BT.1361
      matrix_coefficients : BT.601-6 525, BT.1358 525, BT.1700 NTSC, SMPTE 170M
   Audio #2
      ID : 2
      Format : AAC
      Format/Info : Advanced Audio Codec
      Format version : Version 4
      Format profile : LC
      Format settings, SBR : No
      Codec ID : 40
      Duration : 1h 29mn
      Bit rate mode : Variable
      Bit rate : 160 Kbps
      Maximum bit rate : 222 Kbps
      Channel(s) : 2 channels
      Channel positions : L R
      Sampling rate : 48.0 KHz
      Resolution : 16 bits
      Stream size : 102 MiB (12%)
      Language : Romanian
      Encoded date : UTC 2010-02-27 06:08:24
      Tagged date : UTC 2010-02-27 06:27:01
   Audio #3
      ID : 3
      Format : AAC
      Format/Info : Advanced Audio Codec
      Format version : Version 4
      Format profile : LC
      Format settings, SBR : No
      Codec ID : 40
      Duration : 1h 29mn
      Bit rate mode : Variable
      Bit rate : 160 Kbps
      Maximum bit rate : 223 Kbps
      Channel(s) : 2 channels
      Channel positions : L R
      Sampling rate : 48.0 KHz
      Resolution : 16 bits
      Stream size : 102 MiB (12%)
      Language : English
      Encoded date : UTC 2010-02-27 06:08:24
      Tagged date : UTC 2010-02-27 06:27:01